<?xml version="1.0" standalone="no"?>
<!DOCTYPE svg PUBLIC "-//W3C//DTD SVG 20010904//EN"
 "http://www.w3.org/TR/2001/REC-SVG-20010904/DTD/svg10.dtd">
<svg version="1.0" xmlns="http://www.w3.org/2000/svg"
 width="640.000000pt" height="640.000000pt" viewBox="0 0 640.000000 640.000000"
 preserveAspectRatio="xMidYMid meet">
<metadata>
Created by potrace 1.14, written by Peter Selinger 2001-2017
</metadata>
<g transform="translate(0.000000,640.000000) scale(0.100000,-0.100000)"
fill="#000000" stroke="none">
<path d="M3917 6393 c-3 -5 -38 -22 -77 -37 -63 -25 -132 -76 -128 -94 3 -14
-15 -96 -29 -130 -8 -19 -37 -75 -65 -124 -28 -49 -61 -118 -74 -151 -108
-293 -125 -329 -201 -430 -135 -177 -333 -479 -459 -697 -336 -584 -578 -1188
-759 -1893 -37 -144 -77 -295 -89 -335 l-21 -73 -62 32 c-35 18 -71 39 -80 48
-30 27 -166 117 -209 139 -157 80 -403 90 -593 25 -383 -130 -679 -509 -755
-968 -11 -66 -14 -140 -11 -273 2 -100 6 -186 9 -190 2 -4 7 -29 10 -55 15
-131 80 -336 151 -478 127 -256 291 -439 505 -563 93 -54 230 -106 320 -120
19 -3 49 -9 65 -12 17 -3 98 -7 180 -9 235 -4 428 33 654 127 302 125 627 379
781 610 54 81 140 245 140 268 0 6 4 18 10 28 5 9 18 49 29 87 96 348 41 686
-151 917 -124 148 -338 273 -529 308 -35 7 -71 14 -79 15 -8 2 -59 4 -113 4
l-98 1 6 48 c8 65 36 225 40 232 1 3 6 27 9 53 9 63 40 214 71 341 23 95 114
387 134 431 5 11 22 54 36 95 38 103 158 396 208 505 108 236 325 644 432 810
105 165 218 335 222 335 3 0 2 -11 -1 -24 -12 -49 -20 -173 -20 -301 0 -163
10 -245 45 -385 104 -404 348 -767 749 -1116 25 -21 47 -42 50 -45 3 -3 34
-28 70 -55 l65 -49 -130 -1 c-110 -1 -144 -5 -220 -28 -356 -106 -589 -362
-650 -714 -34 -193 -14 -409 57 -622 27 -80 129 -281 190 -375 238 -365 592
-616 958 -681 220 -38 544 6 787 109 456 193 692 534 798 1157 11 63 14 344 5
410 -66 454 -268 775 -585 931 -110 54 -191 73 -305 73 -118 0 -166 -16 -390
-128 -91 -45 -186 -91 -212 -101 l-48 -18 -67 43 c-253 161 -370 249 -482 361
-362 361 -557 777 -565 1204 -4 177 15 328 65 529 18 71 28 88 91 165 154 187
175 208 220 215 77 12 128 69 159 176 8 29 26 58 50 80 34 31 38 41 43 95 2
33 8 87 12 121 7 67 -9 114 -47 135 -28 15 -115 23 -122 12z"/>
</g>
</svg>
